<svg xmlns="http://www.w3.org/2000/svg" viewBox="0 0 175.92 176.23"><defs><style>.cls-1{fill:#8b8891;}.cls-2{fill:#aeadb3;}.cls-3{fill:#8d8a92;}.cls-4{fill:#7a7981;}.cls-5{fill:#78767f;}.cls-6{fill:#2d2a2f;}.cls-7{fill:#2c292d;}.cls-8{fill:#3d3c42;}.cls-9{fill:#3c3a41;}</style></defs><g id="Capa_2" data-name="Capa 2"><g id="Capa_1-2" data-name="Capa 1"><path class="cls-1" d="M88.15,10.56c10.94-.83,21.59,0,31.54,5.2a12.07,12.07,0,0,0,3.36.66c.83,1.18,1.41,2.69,2.52,3.47,8.5,6,13.62,14.33,16.83,24,.82,2.47,1.75,4.9,2.63,7.35.15,8.91-.37,17.89.59,26.72,2,18.61,5.27,37.09,7.15,55.71,1.06,10.41-4,18.61-13,24.16a14.22,14.22,0,0,1-3.13,1.54,107.56,107.56,0,0,0-25.43,12.18c-6.55,4.25-14.36,4.92-22.13,4.47a38.85,38.85,0,0,1-1-6.27c-.08-15.19,0-30.38,0-45.57,1,0,2,0,3,0,6.81.36,12.32-1.16,14.47-8.75.7-2.5,2.34-4.77,3.74-7,4.12-6.6,4.79-13.08.91-20.26-3.12-5.79-5.24-12.13-7.72-18.26C97.59,58,92.81,46.11,88,34.2Zm5.33,138.67c7.06,1.42,8.15,1.52,13.93-4.81,1.85-2,1.19-6.34,1.69-9.67C100.25,134.22,93.92,140.34,93.48,149.23ZM124.3,93.29v9.59h9.34V93.29Z"/><path class="cls-2" d="M88,124.2c0,15.19-.06,30.38,0,45.57a38.85,38.85,0,0,0,1,6.27c-12.27,1-23.14-2.06-32.95-9.86-3.32-2.65-8.14-3.54-12.37-4.93-10.58-3.5-18.13-10.09-20-21.31-.87-5.07,0-10.53.63-15.74,2-16.24,4.58-32.41,6.46-48.66.92-7.89.8-15.9,1.15-23.86,1.92-12.93,7.78-23.56,18.21-31.61,1.18-.91,1.87-2.48,2.79-3.74,5.81-1.71,11.53-4,17.45-5s11.81-.6,17.73-.81L88,34.2,87.82,37c-1.21,1.68-2.81,3.2-3.56,5.06C77.94,57.74,71.92,73.52,65.49,89.13c-2.36,5.73-4.19,11,.13,16.62a21,21,0,0,1,3.55,7c2.69,9.94,9.16,13.26,18.86,11.41Zm-5.58,24.86a13.89,13.89,0,0,0-14.6-14.38C65.87,146.52,71.36,151.93,82.46,149.06ZM51.87,93.54H42.21V103h9.66Z"/><path class="cls-3" d="M53,16.33c-.92,1.26-1.61,2.83-2.79,3.74C39.75,28.12,33.89,38.75,32,51.68,8.31,47.71-3,28.67.68,0Z"/><path class="cls-4" d="M145,51.26c-.88-2.45-1.81-4.88-2.63-7.35-3.21-9.69-8.33-18-16.83-24-1.11-.78-1.69-2.29-2.52-3.47L174.84.15c4.08,23.22-3.25,43-24.94,50.26A32.39,32.39,0,0,1,145,51.26Z"/><path class="cls-5" d="M87.82,37,88,34.2C92.81,46.11,97.59,58,102.43,69.93c2.48,6.13,4.6,12.47,7.72,18.26,3.88,7.18,3.21,13.66-.91,20.26-1.4,2.25-3,4.52-3.74,7-2.15,7.59-7.66,9.11-14.47,8.75-1,0-2,0-3,0h0Z"/><path class="cls-6" d="M93.48,149.23c.44-8.89,6.77-15,15.62-14.48-.5,3.33.16,7.64-1.69,9.67C101.63,150.75,100.54,150.65,93.48,149.23Z"/><path class="cls-7" d="M124.3,93.29h9.34v9.59H124.3Z"/><path class="cls-1" d="M87.82,37,88,124.2c-9.7,1.85-16.17-1.47-18.86-11.41a21,21,0,0,0-3.55-7c-4.32-5.63-2.49-10.89-.13-16.62,6.43-15.61,12.45-31.39,18.77-47C85,40.22,86.61,38.7,87.82,37Z"/><path class="cls-8" d="M82.46,149.06c-11.1,2.87-16.59-2.54-14.6-14.38A13.89,13.89,0,0,1,82.46,149.06Z"/><path class="cls-9" d="M51.87,93.54V103H42.21V93.54Z"/></g></g></svg>